<svg width="34" height="34" viewBox="0 0 34 34" fill="none" xmlns="http://www.w3.org/2000/svg">
<rect width="34" height="34" rx="5" fill="#666666"/>
<path d="M34 17.0005C34 7.61162 26.3888 0.000465393 17 0.000465393C7.61115 0.000465393 0 7.61162 0 17.0005C0 25.4857 6.21665 32.5186 14.3438 33.7939V21.9145H10.0273V17.0005H14.3438V13.2552C14.3438 8.99453 16.8817 6.64109 20.7649 6.64109C22.6248 6.64109 24.5703 6.97312 24.5703 6.97312V11.1567H22.4267C20.3148 11.1567 19.6562 12.4671 19.6562 13.8115V17.0005H24.3711L23.6174 21.9145H19.6562V33.7939C27.7833 32.5186 34 25.4857 34 17.0005Z" fill="#666666"/>
<path d="M23.6174 21.9141L24.3711 17H19.6562V13.8111C19.6562 12.4667 20.3148 11.1562 22.4266 11.1562H24.5703V6.97266C24.5703 6.97266 22.6248 6.64062 20.7649 6.64062C16.8817 6.64062 14.3437 8.99406 14.3437 13.2547V17H10.0273V21.9141H14.3437V33.7935C15.2093 33.9293 16.0963 34 17 34C17.9037 34 18.7907 33.9293 19.6562 33.7935V21.9141H23.6174Z" fill="white"/>
</svg>
