<svg width="34" height="34" viewBox="0 0 34 34" fill="none" xmlns="http://www.w3.org/2000/svg">
<rect width="34" height="34" rx="5" fill="#666666"/>
<path d="M17 4.63672C13.6424 4.63672 13.221 4.6514 11.9023 4.71142C10.5861 4.77169 9.68768 4.98007 8.90158 5.28581C8.08844 5.6016 7.39867 6.02402 6.71148 6.71149C6.02378 7.3987 5.60136 8.08849 5.28456 8.9014C4.97805 9.68778 4.76942 10.5865 4.71018 11.9022C4.6512 13.2209 4.63574 13.6426 4.63574 17.0004C4.63574 20.3581 4.65068 20.7782 4.71044 22.097C4.77097 23.4132 4.97934 24.3116 5.28481 25.0978C5.60085 25.9109 6.02326 26.6007 6.71071 27.2879C7.39764 27.9757 8.08741 28.3991 8.90004 28.7149C9.68665 29.0206 10.5853 29.229 11.9012 29.2893C13.22 29.3493 13.6411 29.364 16.9985 29.364C20.3564 29.364 20.7765 29.3493 22.0952 29.2893C23.4114 29.229 24.3108 29.0206 25.0975 28.7149C25.9103 28.3991 26.5991 27.9757 27.286 27.2879C27.9737 26.6007 28.3961 25.9109 28.7129 25.098C29.0169 24.3116 29.2255 23.413 29.2873 22.0973C29.3466 20.7785 29.362 20.3581 29.362 17.0004C29.362 13.6426 29.3466 13.2212 29.2873 11.9024C29.2255 10.5862 29.0169 9.68778 28.7129 8.90166C28.3961 8.08849 27.9737 7.3987 27.286 6.71149C26.5983 6.02376 25.9106 5.60134 25.0967 5.28581C24.3085 4.98007 23.4096 4.77169 22.0934 4.71142C20.7747 4.6514 20.3549 4.63672 16.9962 4.63672H17ZM15.8909 6.86475C16.2201 6.86423 16.5874 6.86475 17 6.86475C20.301 6.86475 20.6923 6.8766 21.9958 6.93584C23.2012 6.99096 23.8555 7.19238 24.2913 7.36161C24.8682 7.5857 25.2796 7.85358 25.712 8.28631C26.1447 8.71904 26.4126 9.13116 26.6372 9.70813C26.8064 10.1434 27.0081 10.7977 27.063 12.0031C27.1222 13.3065 27.1351 13.698 27.1351 16.9975C27.1351 20.2971 27.1222 20.6886 27.063 21.9919C27.0078 23.1974 26.8064 23.8516 26.6372 24.2869C26.4131 24.8639 26.1447 25.2747 25.712 25.7072C25.2793 26.1399 24.8685 26.4078 24.2913 26.6319C23.856 26.8019 23.2012 27.0028 21.9958 27.0579C20.6925 27.1171 20.301 27.13 17 27.13C13.6988 27.13 13.3075 27.1171 12.0042 27.0579C10.7988 27.0023 10.1446 26.8008 9.70854 26.6316C9.13159 26.4075 8.71948 26.1397 8.28677 25.7069C7.85405 25.2742 7.58618 24.8631 7.36158 24.2859C7.19236 23.8506 6.99069 23.1963 6.93582 21.9909C6.87658 20.6875 6.86474 20.296 6.86474 16.9944C6.86474 13.6928 6.87658 13.3034 6.93582 12C6.99094 10.7946 7.19236 10.1403 7.36158 9.70452C7.58567 9.12755 7.85405 8.71543 8.28677 8.2827C8.71948 7.84997 9.13159 7.5821 9.70854 7.35749C10.1443 7.18749 10.7988 6.98658 12.0042 6.9312C13.1448 6.87969 13.5867 6.86423 15.8909 6.86166V6.86475ZM23.5994 8.91763C22.7804 8.91763 22.1158 9.5814 22.1158 10.4007C22.1158 11.2198 22.7804 11.8844 23.5994 11.8844C24.4185 11.8844 25.083 11.2198 25.083 10.4007C25.083 9.58166 24.4185 8.91711 23.5994 8.91711V8.91763ZM17 10.6511C13.4938 10.6511 10.651 13.494 10.651 17.0004C10.651 20.5067 13.4938 23.3483 17 23.3483C20.5063 23.3483 23.3481 20.5067 23.3481 17.0004C23.3481 13.494 20.5061 10.6511 16.9998 10.6511H17ZM17 12.8791C19.2759 12.8791 21.1211 14.7242 21.1211 17.0004C21.1211 19.2763 19.2759 21.1216 17 21.1216C14.7239 21.1216 12.8789 19.2763 12.8789 17.0004C12.8789 14.7242 14.7239 12.8791 17 12.8791Z" fill="white"/>
</svg>
