<svg width="25" height="24" viewBox="0 0 25 24" fill="none" xmlns="http://www.w3.org/2000/svg">
<path d="M19.6391 12.9359C19.6751 12.6359 19.6991 12.3239 19.6991 11.9999C19.6991 11.6759 19.6751 11.3639 19.6271 11.0639L21.6551 9.4799C21.8351 9.3359 21.8831 9.0719 21.7751 8.8679L19.8551 5.5439C19.7351 5.3279 19.4831 5.2559 19.2671 5.3279L16.8791 6.2879C16.3751 5.9039 15.8471 5.5919 15.2591 5.3519L14.8991 2.8079C14.8631 2.5679 14.6591 2.3999 14.4191 2.3999H10.5791C10.3391 2.3999 10.1471 2.5679 10.1111 2.8079L9.75113 5.3519C9.16313 5.5919 8.62313 5.9159 8.13113 6.2879L5.74313 5.3279C5.52713 5.2439 5.27513 5.3279 5.15513 5.5439L3.23513 8.8679C3.11513 9.0839 3.16313 9.3359 3.35513 9.4799L5.38313 11.0639C5.33513 11.3639 5.29913 11.6879 5.29913 11.9999C5.29913 12.3119 5.32313 12.6359 5.37113 12.9359L3.34313 14.5199C3.16313 14.6639 3.11513 14.9279 3.22313 15.1319L5.14313 18.4559C5.26313 18.6719 5.51513 18.7439 5.73113 18.6719L8.11913 17.7119C8.62313 18.0959 9.15113 18.4079 9.73913 18.6479L10.0991 21.1919C10.1471 21.4319 10.3391 21.5999 10.5791 21.5999H14.4191C14.6591 21.5999 14.8631 21.4319 14.8871 21.1919L15.2471 18.6479C15.8351 18.4079 16.3751 18.0839 16.8671 17.7119L19.2551 18.6719C19.4711 18.7559 19.7231 18.6719 19.8431 18.4559L21.7631 15.1319C21.8831 14.9159 21.8351 14.6639 21.6431 14.5199L19.6391 12.9359ZM12.4991 15.5999C10.5191 15.5999 8.89913 13.9799 8.89913 11.9999C8.89913 10.0199 10.5191 8.3999 12.4991 8.3999C14.4791 8.3999 16.0991 10.0199 16.0991 11.9999C16.0991 13.9799 14.4791 15.5999 12.4991 15.5999Z" fill="#666666"/>
</svg>
