<svg width="34" height="34" viewBox="0 0 34 34" fill="none" xmlns="http://www.w3.org/2000/svg">
<rect width="34" height="34" rx="5" fill="#666666"/>
<path d="M12.1767 27.5C21.9885 27.5 27.3542 19.4215 27.3542 12.4162C27.3542 12.1867 27.3495 11.9583 27.3391 11.7309C28.3807 10.9826 29.286 10.0488 30 8.98572C29.0442 9.40794 28.0156 9.69217 26.9367 9.82034C28.038 9.16401 28.8835 8.12579 29.2824 6.88811C28.2517 7.49534 27.1104 7.93668 25.8951 8.17495C24.9217 7.14451 23.5359 6.5 22.0014 6.5C19.0555 6.5 16.6667 8.87417 16.6667 11.8007C16.6667 12.2167 16.7135 12.6213 16.805 13.0095C12.3716 12.7878 8.44032 10.6782 5.80929 7.47053C5.35117 8.25398 5.08702 9.16404 5.08702 10.1351C5.08702 11.9744 6.02876 13.5981 7.46084 14.5479C6.58566 14.5211 5.76353 14.2823 5.04496 13.8849C5.04418 13.9071 5.04418 13.9288 5.04418 13.9526C5.04418 16.52 6.88291 18.6637 9.32374 19.1494C8.87549 19.2708 8.40389 19.336 7.91714 19.336C7.57394 19.336 7.23957 19.3024 6.91458 19.2404C7.59369 21.3468 9.56296 22.8796 11.8977 22.9224C10.072 24.3446 7.77205 25.1917 5.27242 25.1917C4.84237 25.1917 4.41754 25.1674 4 25.1183C6.36082 26.6222 9.16379 27.5 12.1767 27.5Z" fill="white"/>
</svg>
